<svg version="1" xmlns="http://www.w3.org/2000/svg" width="933.333" height="933.333" viewBox="0 0 700.000000 700.000000"><path d="M322.5.6c-24.6 2.5-49.8 7-68 12.3-113.2 32.5-202.1 118.5-237.9 230C9.8 263.8 5.3 284.4 1.8 310c-1.7 12.8-1.7 67.2 0 80 6.2 44.8 16.4 79 34.8 116C85.9 605.2 180.5 675.9 289 694.9c23.6 4.1 30 4.6 61 4.6s37.4-.5 61-4.6c56.3-9.8 111.5-34.7 156.5-70.4 67.2-53.4 113-130.1 127.4-213.5 4.1-23.9 4.6-30 4.6-61.5-.1-33.7-.9-42.8-6.5-70.5C668.8 160.2 582.1 60.5 467.5 20c-23.4-8.3-47.1-14-73-17.6-11.4-1.5-61.7-2.8-72-1.8zm42.9 92c3.2.8 7.7 2.3 10 3.3 4.7 2.1 170 97.3 179.4 103.3 9.2 6 16.5 14.4 21.6 25.1 2.4 5.1 4.9 11.6 5.5 14.5 1.4 7 1.5 215.7.1 222.2-3.5 15.6-13.3 30.3-26 38.9-11.8 8-178.6 103.6-184.4 105.7-13.9 5-29.3 5-43.2 0-5.8-2.1-172.3-97.5-184.4-105.6-10.6-7.2-19.2-18.4-23.8-31.2l-2.7-7.3-.3-108c-.2-74.5 0-109.8.8-113.7 3.1-16.1 13.3-31.5 27-40.5 13-8.5 178.4-103 183.8-105 11.5-4.2 23.9-4.8 36.6-1.7z"/><path d="M340 114.5c-3.5 1-25.9 13.4-62.5 34.5-31.3 18.1-71.4 41.2-89 51.3-35.6 20.5-39.7 23.7-44.8 34.4l-3.2 6.8v217l2.7 5.7c3.9 8.3 7.1 12.1 14.6 17.2 10 6.6 174.9 101.6 179.6 103.3 6.2 2.3 19.9 2.1 26.1-.4 2.8-1.1 44.4-24.8 92.5-52.6 62.4-36 88.9-51.8 92.3-55.1 2.9-2.7 6-7.2 8-11.3l3.2-6.8.3-106.9c.2-105.5.2-107.1-1.8-113-2.3-6.9-7.3-14.2-12.2-17.9-5.6-4.2-177-102.9-182.3-104.9-6.7-2.7-16.7-3.2-23.5-1.3zM321.3 271c12.7 1.9 23.6 7 33.7 15.8l4.9 4.3 5.6-4.6c7.1-5.8 17.3-10.9 27.2-13.7 10.3-2.9 29.6-3.1 39.3-.4 22.1 6.1 37.5 22.5 44.2 47.1 2 7.6 2.2 10.6 2.6 59.2l.4 51.3h-52.1l-.3-46.8-.3-46.7-2.7-5.1c-5.3-10.1-13.9-14.9-25.5-14.2-7.8.5-12.5 2.4-18.5 7.7l-4.1 3.7.2 50.7.2 50.7h-52.3l.7-37.3c1-52.3-.2-60.9-10.1-69.5-5-4.5-10-6.2-17.7-6.2-7.2 0-13.5 2.8-19.2 8.4l-4.5 4.5V430h-52V275h52v9.2l4.8-3.5c12.2-8.9 26.6-12.1 43.5-9.7zM527 402.9c9.4 6.6 9.1 19.3-.6 24.8-10.2 5.9-23.4-1.2-23.4-12.5 0-11.5 14.5-18.9 24-12.3z"/></svg>